{
	"asset":{
		"generator":"Khronos glTF Blender I/O v5.0.21",
		"version":"2.0"
	},
	"extensionsUsed":[
		"KHR_materials_transmission"
	],
	"scene":0,
	"scenes":[
		{
			"name":"Scene",
			"nodes":[
				15
			]
		}
	],
	"nodes":[
		{
			"mesh":0,
			"name":"Saturn_Material #50_0"
		},
		{
			"children":[
				0
			],
			"name":"Saturn",
			"rotation":[
				-0.70710688829422,
				0,
				0,
				0.7071066498756409
			]
		},
		{
			"mesh":1,
			"name":"Saturn Clouds_Material #62_0"
		},
		{
			"children":[
				2
			],
			"name":"Saturn Clouds",
			"rotation":[
				-0.7070733308792114,
				-0.006879125256091356,
				-0.006879113148897886,
				0.7070732712745667
			],
			"scale":[
				1.0099999904632568,
				1.0100001096725464,
				1.0099999904632568
			]
		},
		{
			"mesh":2,
			"name":"Saturn Rings_Material #63_0"
		},
		{
			"children":[
				4
			],
			"name":"Saturn Rings",
			"rotation":[
				-0.70710688829422,
				0,
				0,
				0.7071066498756409
			]
		},
		{
			"name":"ConeDown",
			"translation":[
				0,
				1.2040138244628906e-05,
				-54.05000305175781
			]
		},
		{
			"name":"ConeUP",
			"rotation":[
				-1,
				0,
				0,
				8.707866072654724e-08
			],
			"translation":[
				2.928897174570011e-06,
				-8.940696716308594e-06,
				54.05000305175781
			]
		},
		{
			"mesh":3,
			"name":"Saturn Rings Down_Material #63_0",
			"translation":[
				0,
				-2.466142177581787e-06,
				0
			]
		},
		{
			"children":[
				6,
				7,
				8
			],
			"name":"Saturn Rings Down",
			"rotation":[
				0.70710688829422,
				0,
				0,
				0.7071066498756409
			]
		},
		{
			"mesh":4,
			"name":"Sphere Tethys_Material #64_0",
			"translation":[
				0,
				2.8014183044433594e-06,
				0
			]
		},
		{
			"children":[
				10
			],
			"name":"Sphere Tethys",
			"rotation":[
				-0.70710688829422,
				0,
				0,
				0.7071066498756409
			],
			"translation":[
				3.9636712074279785,
				0,
				21.65972328186035
			]
		},
		{
			"children":[
				1,
				3,
				5,
				9,
				11
			],
			"name":"RootNode"
		},
		{
			"children":[
				12
			],
			"name":"Object_2"
		},
		{
			"children":[
				13
			],
			"name":"b51815ad932540ac9ac90768f02951f9.fbx",
			"rotation":[
				0.70710688829422,
				0,
				0,
				0.7071066498756409
			]
		},
		{
			"children":[
				14
			],
			"name":"Sketchfab_model",
			"rotation":[
				-0.8331222534179688,
				0.09901000559329987,
				-0.06421658396720886,
				0.5403522253036499
			],
			"scale":[
				0.09457144886255264,
				0.09457148611545563,
				0.09457148611545563
			],
			"translation":[
				-0.06282241642475128,
				-0.25995224714279175,
				2.9744343757629395
			]
		}
	],
	"animations":[
		{
			"channels":[
				{
					"sampler":0,
					"target":{
						"node":1,
						"path":"rotation"
					}
				},
				{
					"sampler":1,
					"target":{
						"node":1,
						"path":"scale"
					}
				},
				{
					"sampler":2,
					"target":{
						"node":3,
						"path":"rotation"
					}
				},
				{
					"sampler":3,
					"target":{
						"node":5,
						"path":"rotation"
					}
				},
				{
					"sampler":4,
					"target":{
						"node":9,
						"path":"rotation"
					}
				}
			],
			"name":"Take 001",
			"samplers":[
				{
					"input":19,
					"interpolation":"LINEAR",
					"output":20
				},
				{
					"input":21,
					"interpolation":"STEP",
					"output":22
				},
				{
					"input":19,
					"interpolation":"LINEAR",
					"output":23
				},
				{
					"input":19,
					"interpolation":"LINEAR",
					"output":24
				},
				{
					"input":19,
					"interpolation":"LINEAR",
					"output":25
				}
			]
		}
	],
	"materials":[
		{
			"name":"Material_50",
			"pbrMetallicRoughness":{
				"baseColorFactor":[
					0,
					0,
					0,
					1
				]
			}
		},
		{
			"alphaMode":"BLEND",
			"extensions":{
				"KHR_materials_transmission":{
					"transmissionFactor":1
				}
			},
			"name":"Material_62",
			"pbrMetallicRoughness":{
				"baseColorFactor":[
					0,
					0,
					0,
					0.25
				],
				"metallicFactor":0
			}
		},
		{
			"emissiveFactor":[
				1,
				1,
				1
			],
			"emissiveTexture":{
				"index":0
			},
			"name":"Material_63",
			"pbrMetallicRoughness":{
				"baseColorTexture":{
					"index":1
				},
				"roughnessFactor":0.550495445728302
			}
		},
		{
			"alphaMode":"BLEND",
			"emissiveFactor":[
				1,
				1,
				1
			],
			"emissiveTexture":{
				"index":2
			},
			"name":"Material_64",
			"pbrMetallicRoughness":{
				"baseColorFactor":[
					0,
					0,
					0,
					0.6541539430618286
				],
				"baseColorTexture":{
					"index":3
				},
				"metallicFactor":0
			}
		}
	],
	"meshes":[
		{
			"name":"Saturn_Material #50_0",
			"primitives":[
				{
					"attributes":{
						"POSITION":0,
						"NORMAL":1,
						"TEXCOORD_0":2
					},
					"indices":3,
					"material":0
				}
			]
		},
		{
			"name":"Saturn Clouds_Material #62_0",
			"primitives":[
				{
					"attributes":{
						"POSITION":4,
						"NORMAL":5,
						"TEXCOORD_0":6
					},
					"indices":7,
					"material":1
				}
			]
		},
		{
			"name":"Saturn Rings_Material #63_0",
			"primitives":[
				{
					"attributes":{
						"POSITION":8,
						"NORMAL":9,
						"TEXCOORD_0":10
					},
					"indices":11,
					"material":2
				}
			]
		},
		{
			"name":"Saturn Rings Down_Material #63_0",
			"primitives":[
				{
					"attributes":{
						"POSITION":12,
						"NORMAL":13,
						"TEXCOORD_0":14
					},
					"indices":11,
					"material":2
				}
			]
		},
		{
			"name":"Sphere Tethys_Material #64_0",
			"primitives":[
				{
					"attributes":{
						"POSITION":15,
						"NORMAL":16,
						"TEXCOORD_0":17
					},
					"indices":18,
					"material":3
				}
			]
		}
	],
	"textures":[
		{
			"sampler":0,
			"source":0
		},
		{
			"sampler":0,
			"source":0
		},
		{
			"sampler":0,
			"source":1
		},
		{
			"sampler":0,
			"source":2
		}
	],
	"images":[
		{
			"mimeType":"image/png",
			"name":"Material_63_baseColor",
			"uri":"Material_63_baseColor.png"
		},
		{
			"mimeType":"image/png",
			"name":"Material_64_emissive",
			"uri":"Material_64_emissive.png"
		},
		{
			"mimeType":"image/png",
			"name":"Material_64_baseColor",
			"uri":"Material_64_baseColor.png"
		}
	],
	"accessors":[
		{
			"bufferView":0,
			"componentType":5126,
			"count":2143,
			"max":[
				5,
				5,
				5
			],
			"min":[
				-5,
				-5,
				-5
			],
			"type":"VEC3"
		},
		{
			"bufferView":1,
			"componentType":5126,
			"count":2143,
			"type":"VEC3"
		},
		{
			"bufferView":2,
			"componentType":5126,
			"count":2143,
			"type":"VEC2"
		},
		{
			"bufferView":3,
			"componentType":5123,
			"count":11904,
			"type":"SCALAR"
		},
		{
			"bufferView":4,
			"componentType":5126,
			"count":2212,
			"max":[
				5.341330051422119,
				5.3413310050964355,
				5
			],
			"min":[
				-5.341330051422119,
				-5.341330051422119,
				-5
			],
			"type":"VEC3"
		},
		{
			"bufferView":5,
			"componentType":5126,
			"count":2212,
			"type":"VEC3"
		},
		{
			"bufferView":6,
			"componentType":5126,
			"count":2212,
			"type":"VEC2"
		},
		{
			"bufferView":7,
			"componentType":5123,
			"count":11904,
			"type":"SCALAR"
		},
		{
			"bufferView":8,
			"componentType":5126,
			"count":665,
			"max":[
				14.521262168884277,
				14.521262168884277,
				0.46584606170654297
			],
			"min":[
				-14.521262168884277,
				-14.521262168884277,
				-5.008292873753817e-07
			],
			"type":"VEC3"
		},
		{
			"bufferView":9,
			"componentType":5126,
			"count":665,
			"type":"VEC3"
		},
		{
			"bufferView":10,
			"componentType":5126,
			"count":665,
			"type":"VEC2"
		},
		{
			"bufferView":11,
			"componentType":5123,
			"count":3168,
			"type":"SCALAR"
		},
		{
			"bufferView":12,
			"componentType":5126,
			"count":665,
			"max":[
				14.521262168884277,
				14.521262168884277,
				0.46584606170654297
			],
			"min":[
				-14.521262168884277,
				-14.521262168884277,
				-5.008292873753817e-07
			],
			"type":"VEC3"
		},
		{
			"bufferView":13,
			"componentType":5126,
			"count":665,
			"type":"VEC3"
		},
		{
			"bufferView":14,
			"componentType":5126,
			"count":665,
			"type":"VEC2"
		},
		{
			"bufferView":15,
			"componentType":5126,
			"count":89,
			"max":[
				0.00800000037997961,
				0.00800000037997961,
				0.00800000037997961
			],
			"min":[
				-0.00800000037997961,
				-0.00800000037997961,
				-0.00800000037997961
			],
			"type":"VEC3"
		},
		{
			"bufferView":16,
			"componentType":5126,
			"count":89,
			"type":"VEC3"
		},
		{
			"bufferView":17,
			"componentType":5126,
			"count":89,
			"type":"VEC2"
		},
		{
			"bufferView":18,
			"componentType":5123,
			"count":360,
			"type":"SCALAR"
		},
		{
			"bufferView":19,
			"componentType":5126,
			"count":161,
			"max":[
				6.666666666666667
			],
			"min":[
				0
			],
			"type":"SCALAR"
		},
		{
			"bufferView":20,
			"componentType":5126,
			"count":161,
			"type":"VEC4"
		},
		{
			"bufferView":21,
			"componentType":5126,
			"count":2,
			"max":[
				6.666666666666667
			],
			"min":[
				0
			],
			"type":"SCALAR"
		},
		{
			"bufferView":22,
			"componentType":5126,
			"count":2,
			"type":"VEC3"
		},
		{
			"bufferView":23,
			"componentType":5126,
			"count":161,
			"type":"VEC4"
		},
		{
			"bufferView":24,
			"componentType":5126,
			"count":161,
			"type":"VEC4"
		},
		{
			"bufferView":25,
			"componentType":5126,
			"count":161,
			"type":"VEC4"
		}
	],
	"bufferViews":[
		{
			"buffer":0,
			"byteLength":25716,
			"byteOffset":0,
			"target":34962
		},
		{
			"buffer":0,
			"byteLength":25716,
			"byteOffset":25716,
			"target":34962
		},
		{
			"buffer":0,
			"byteLength":17144,
			"byteOffset":51432,
			"target":34962
		},
		{
			"buffer":0,
			"byteLength":23808,
			"byteOffset":68576,
			"target":34963
		},
		{
			"buffer":0,
			"byteLength":26544,
			"byteOffset":92384,
			"target":34962
		},
		{
			"buffer":0,
			"byteLength":26544,
			"byteOffset":118928,
			"target":34962
		},
		{
			"buffer":0,
			"byteLength":17696,
			"byteOffset":145472,
			"target":34962
		},
		{
			"buffer":0,
			"byteLength":23808,
			"byteOffset":163168,
			"target":34963
		},
		{
			"buffer":0,
			"byteLength":7980,
			"byteOffset":186976,
			"target":34962
		},
		{
			"buffer":0,
			"byteLength":7980,
			"byteOffset":194956,
			"target":34962
		},
		{
			"buffer":0,
			"byteLength":5320,
			"byteOffset":202936,
			"target":34962
		},
		{
			"buffer":0,
			"byteLength":6336,
			"byteOffset":208256,
			"target":34963
		},
		{
			"buffer":0,
			"byteLength":7980,
			"byteOffset":214592,
			"target":34962
		},
		{
			"buffer":0,
			"byteLength":7980,
			"byteOffset":222572,
			"target":34962
		},
		{
			"buffer":0,
			"byteLength":5320,
			"byteOffset":230552,
			"target":34962
		},
		{
			"buffer":0,
			"byteLength":1068,
			"byteOffset":235872,
			"target":34962
		},
		{
			"buffer":0,
			"byteLength":1068,
			"byteOffset":236940,
			"target":34962
		},
		{
			"buffer":0,
			"byteLength":712,
			"byteOffset":238008,
			"target":34962
		},
		{
			"buffer":0,
			"byteLength":720,
			"byteOffset":238720,
			"target":34963
		},
		{
			"buffer":0,
			"byteLength":644,
			"byteOffset":239440
		},
		{
			"buffer":0,
			"byteLength":2576,
			"byteOffset":240084
		},
		{
			"buffer":0,
			"byteLength":8,
			"byteOffset":242660
		},
		{
			"buffer":0,
			"byteLength":24,
			"byteOffset":242668
		},
		{
			"buffer":0,
			"byteLength":2576,
			"byteOffset":242692
		},
		{
			"buffer":0,
			"byteLength":2576,
			"byteOffset":245268
		},
		{
			"buffer":0,
			"byteLength":2576,
			"byteOffset":247844
		}
	],
	"samplers":[
		{
			"magFilter":9729,
			"minFilter":9987
		}
	],
	"buffers":[
		{
			"byteLength":250420,
			"uri":"scene.bin"
		}
	]
}
